<svg width="22" height="22" viewBox="0 0 22 22" fill="none" xmlns="http://www.w3.org/2000/svg">
<path d="M10.0375 16.8208L6.78333 13.5666L8.1125 12.2375L10.0375 14.1625L13.8875 10.3125L15.2167 11.6416L10.0375 16.8208ZM4.58333 20.1666C4.07917 20.1666 3.64742 19.9873 3.28808 19.6286C2.92936 19.2692 2.75 18.8375 2.75 18.3333V5.49998C2.75 4.99581 2.92936 4.56437 3.28808 4.20565C3.64742 3.84631 4.07917 3.66665 4.58333 3.66665H5.5V1.83331H7.33333V3.66665H14.6667V1.83331H16.5V3.66665H17.4167C17.9208 3.66665 18.3526 3.84631 18.7119 4.20565C19.0706 4.56437 19.25 4.99581 19.25 5.49998V18.3333C19.25 18.8375 19.0706 19.2692 18.7119 19.6286C18.3526 19.9873 17.9208 20.1666 17.4167 20.1666H4.58333ZM4.58333 18.3333H17.4167V9.16665H4.58333V18.3333ZM4.58333 7.33331H17.4167V5.49998H4.58333V7.33331ZM4.58333 7.33331V5.49998V7.33331Z" fill="#9CA3AF"/>
</svg>
