<svg width="17" height="21" viewBox="0 0 17 21" fill="none" xmlns="http://www.w3.org/2000/svg">
<path d="M8.2899 5.38125C8.30909 5.34189 8.33895 5.30872 8.37608 5.28551C8.41321 5.2623 8.45611 5.25 8.4999 5.25C8.54368 5.25 8.58659 5.2623 8.62372 5.28551C8.66085 5.30872 8.69071 5.34189 8.7099 5.38125L9.54202 7.06781C9.55868 7.10193 9.5834 7.13147 9.61405 7.15388C9.64469 7.1763 9.68034 7.1909 9.7179 7.19644L11.5816 7.46681C11.772 7.49438 11.8494 7.72931 11.7103 7.8645L10.3636 9.17831C10.3365 9.20484 10.3162 9.23758 10.3045 9.27372C10.2929 9.30985 10.2902 9.34828 10.2967 9.38569L10.6143 11.2416C10.6215 11.2844 10.6165 11.3284 10.6 11.3686C10.5835 11.4088 10.5562 11.4436 10.521 11.4691C10.4858 11.4946 10.4442 11.5098 10.4009 11.5129C10.3576 11.5161 10.3142 11.5071 10.2757 11.487L8.60884 10.6102C8.57542 10.5928 8.53827 10.5836 8.50055 10.5836C8.46284 10.5836 8.42569 10.5928 8.39227 10.6102L6.7254 11.487C6.68693 11.5068 6.64374 11.5154 6.60063 11.5121C6.55751 11.5088 6.51617 11.4935 6.48121 11.4681C6.44624 11.4426 6.41902 11.408 6.40258 11.368C6.38614 11.328 6.38112 11.2842 6.38809 11.2416L6.70571 9.38569C6.71241 9.34839 6.70994 9.31002 6.6985 9.2739C6.68707 9.23777 6.66702 9.20496 6.64009 9.17831L5.28821 7.8645C5.25725 7.8341 5.23536 7.79567 5.22501 7.75353C5.21465 7.71138 5.21624 7.66719 5.2296 7.6259C5.24295 7.58461 5.26755 7.54785 5.30062 7.51975C5.33369 7.49166 5.37393 7.47332 5.41684 7.46681L7.28059 7.19644C7.31815 7.1909 7.35379 7.1763 7.38444 7.15388C7.41508 7.13147 7.4398 7.10193 7.45646 7.06781L8.2899 5.38125Z" fill="black"/>
<path d="M0.625 2.625C0.625 1.92881 0.901562 1.26113 1.39384 0.768845C1.88613 0.276562 2.55381 0 3.25 0L13.75 0C14.4462 0 15.1139 0.276562 15.6062 0.768845C16.0984 1.26113 16.375 1.92881 16.375 2.625V20.3438C16.3749 20.4625 16.3427 20.5789 16.2817 20.6807C16.2206 20.7826 16.1332 20.8659 16.0285 20.922C15.9239 20.978 15.806 21.0046 15.6874 20.9989C15.5688 20.9932 15.454 20.9555 15.3552 20.8898L8.5 17.1951L1.64481 20.8898C1.54599 20.9555 1.43118 20.9932 1.31261 20.9989C1.19404 21.0046 1.07615 20.978 0.971499 20.922C0.866849 20.8659 0.779355 20.7826 0.718337 20.6807C0.657319 20.5789 0.625061 20.4625 0.625 20.3438V2.625ZM3.25 1.3125C2.9019 1.3125 2.56806 1.45078 2.32192 1.69692C2.07578 1.94306 1.9375 2.2769 1.9375 2.625V19.1179L8.13644 15.8603C8.24414 15.7886 8.37063 15.7503 8.5 15.7503C8.62937 15.7503 8.75586 15.7886 8.86356 15.8603L15.0625 19.1179V2.625C15.0625 2.2769 14.9242 1.94306 14.6781 1.69692C14.4319 1.45078 14.0981 1.3125 13.75 1.3125H3.25Z" fill="black"/>
</svg>
