<svg width="22" height="22" viewBox="0 0 22 22" fill="none" xmlns="http://www.w3.org/2000/svg">
<path d="M16.0417 3.66665C14.2725 3.66665 12.8334 5.10581 12.8334 6.87498C12.8334 8.29948 13.773 9.49573 15.0609 9.91373C14.927 10.7681 14.5595 11.4721 13.9334 12.0431C12.1495 13.6684 8.86696 13.8169 7.33337 13.7912V8.10056C8.65337 7.70273 9.62504 6.48998 9.62504 5.04165C9.62504 3.27248 8.18587 1.83331 6.41671 1.83331C4.64754 1.83331 3.20837 3.27248 3.20837 5.04165C3.20837 6.48998 4.18004 7.70273 5.50004 8.10056V13.8994C4.18004 14.2972 3.20837 15.51 3.20837 16.9583C3.20837 18.7275 4.64754 20.1666 6.41671 20.1666C8.18587 20.1666 9.62504 18.7275 9.62504 16.9583C9.62504 16.4532 9.49671 15.9821 9.28862 15.5567C11.177 15.3862 13.5575 14.8628 15.1635 13.4026C16.1691 12.4886 16.7503 11.3272 16.9089 9.94856C18.2555 9.56815 19.25 8.34165 19.25 6.87498C19.25 5.10581 17.8109 3.66665 16.0417 3.66665ZM5.04171 5.04165C5.04171 4.28356 5.65862 3.66665 6.41671 3.66665C7.17479 3.66665 7.79171 4.28356 7.79171 5.04165C7.79171 5.79973 7.17479 6.41665 6.41671 6.41665C5.65862 6.41665 5.04171 5.79973 5.04171 5.04165ZM6.41671 18.3333C5.65862 18.3333 5.04171 17.7164 5.04171 16.9583C5.04216 16.5968 5.18497 16.25 5.43923 15.993C5.69348 15.736 6.03872 15.5895 6.40021 15.5851L6.51937 15.5943C6.69922 15.6011 6.87598 15.6432 7.03955 15.7182C7.20313 15.7933 7.35032 15.8998 7.47272 16.0317C7.59512 16.1637 7.69034 16.3184 7.75294 16.4872C7.81553 16.6559 7.84428 16.8353 7.83754 17.0151C7.8308 17.195 7.7887 17.3717 7.71365 17.5353C7.6386 17.6989 7.53206 17.8461 7.40013 17.9685C7.26819 18.0909 7.11343 18.1861 6.9447 18.2487C6.77596 18.3113 6.59655 18.3401 6.41671 18.3333ZM16.0417 8.24998C15.2836 8.24998 14.6667 7.63306 14.6667 6.87498C14.6667 6.1169 15.2836 5.49998 16.0417 5.49998C16.7998 5.49998 17.4167 6.1169 17.4167 6.87498C17.4167 7.63306 16.7998 8.24998 16.0417 8.24998Z" fill="#9CA3AF"/>
</svg>
