<svg width="10" height="10" viewBox="0 0 10 10" fill="none" xmlns="http://www.w3.org/2000/svg">
<path d="M7.88333 2.50415C7.8 2.25831 7.56667 2.08331 7.29167 2.08331H2.70833C2.43333 2.08331 2.20417 2.25831 2.11667 2.50415L1.25 4.99998V8.33331C1.25 8.56248 1.4375 8.74998 1.66667 8.74998H2.08333C2.3125 8.74998 2.5 8.56248 2.5 8.33331V7.91665H7.5V8.33331C7.5 8.56248 7.6875 8.74998 7.91667 8.74998H8.33333C8.5625 8.74998 8.75 8.56248 8.75 8.33331V4.99998L7.88333 2.50415ZM2.85417 2.91665H7.14167L7.575 4.16665H2.42083L2.85417 2.91665ZM7.91667 7.08331H2.08333V4.99998H7.91667V7.08331Z" fill="#FFCF01"/>
<path d="M3.125 6.66669C3.47018 6.66669 3.75 6.38686 3.75 6.04169C3.75 5.69651 3.47018 5.41669 3.125 5.41669C2.77982 5.41669 2.5 5.69651 2.5 6.04169C2.5 6.38686 2.77982 6.66669 3.125 6.66669Z" fill="#FFCF01"/>
<path d="M6.875 6.66669C7.22018 6.66669 7.5 6.38686 7.5 6.04169C7.5 5.69651 7.22018 5.41669 6.875 5.41669C6.52982 5.41669 6.25 5.69651 6.25 6.04169C6.25 6.38686 6.52982 6.66669 6.875 6.66669Z" fill="#FFCF01"/>
</svg>
