<svg width="24" height="24" viewBox="0 0 24 24" fill="none" xmlns="http://www.w3.org/2000/svg">
<path d="M16.5 20.3849L14.5575 18.4424L13.5 19.4999L16.5 22.4999L22.5 16.4999L21.4425 15.4424L16.5 20.3849Z" fill="black"/>
<path d="M11.25 21.9218H8H7.5H6.10938H5.59375L5.5 21.4999V11.9999V2.9999H12.4407V5.49989V7.21273C12.4418 7.61019 13.0593 7.94053 13 7.99989C13.281 8.28093 13.3897 8.4987 13.7872 8.49989L16 8.55925L18.5 8.49989V13.4999H19.275V7.70301C19.2776 7.60444 19.3138 7.30336 19.275 7.21273C19.2362 7.1221 19.3482 7.04096 19.275 6.9749L13.7872 2.19813C13.7212 2.12489 13.5906 1.97929 13.5 1.94044C13.5986 1.93774 13.4916 2.38565 13.5 1.94044L9.5 1.94055L6 1.99989C5.60254 2.00107 5.09355 1.91709 4.8125 2.19814C4.53145 2.47919 4.50119 2.60244 4.5 2.9999V11.9999V20.9999C4.50119 21.3974 4.6596 21.7782 4.94065 22.0592C5.2217 22.3403 5.60254 22.4987 6 22.4999H11.25V21.9218ZM13.5 2.9999L16 4.99989L18.5 7.4999H13.5V2.9999Z" fill="black"/>
</svg>
