<svg width="12" height="12" viewBox="0 0 12 12" fill="none" xmlns="http://www.w3.org/2000/svg">
<path d="M4.95002 1.7998H7.05002C7.05002 1.52133 6.9394 1.25426 6.74249 1.05734C6.54557 0.860429 6.2785 0.749805 6.00002 0.749805C5.72155 0.749805 5.45448 0.860429 5.25756 1.05734C5.06065 1.25426 4.95002 1.52133 4.95002 1.7998ZM4.25002 1.7998C4.25002 1.33568 4.4344 0.890556 4.76259 0.562368C5.09078 0.234179 5.5359 0.0498047 6.00002 0.0498047C6.46415 0.0498047 6.90927 0.234179 7.23746 0.562368C7.56565 0.890556 7.75002 1.33568 7.75002 1.7998H11.25C11.3428 1.7998 11.4319 1.83668 11.4975 1.90232C11.5631 1.96796 11.6 2.05698 11.6 2.1498C11.6 2.24263 11.5631 2.33165 11.4975 2.39729C11.4319 2.46293 11.3428 2.4998 11.25 2.4998H10.5122L9.67642 9.7406C9.61734 10.2524 9.37216 10.7247 8.98753 11.0675C8.6029 11.4103 8.10566 11.5998 7.59042 11.5998H4.40962C3.89439 11.5998 3.39715 11.4103 3.01252 11.0675C2.62789 10.7247 2.3827 10.2524 2.32362 9.7406L1.48782 2.4998H0.750024C0.657199 2.4998 0.568175 2.46293 0.502537 2.39729C0.436899 2.33165 0.400024 2.24263 0.400024 2.1498C0.400024 2.05698 0.436899 1.96796 0.502537 1.90232C0.568175 1.83668 0.657199 1.7998 0.750024 1.7998H4.25002ZM3.01872 9.6608C3.05822 10.002 3.22176 10.3167 3.47822 10.5452C3.73468 10.7736 4.06617 10.8999 4.40962 10.8998H7.59042C7.93388 10.8999 8.26537 10.7736 8.52183 10.5452C8.77829 10.3167 8.94183 10.002 8.98132 9.6608L9.80732 2.4998H2.19272L3.01872 9.6608ZM4.95002 4.2498C5.04285 4.2498 5.13187 4.28668 5.19751 4.35232C5.26315 4.41795 5.30002 4.50698 5.30002 4.5998V8.7998C5.30002 8.89263 5.26315 8.98165 5.19751 9.04729C5.13187 9.11293 5.04285 9.1498 4.95002 9.1498C4.8572 9.1498 4.76817 9.11293 4.70254 9.04729C4.6369 8.98165 4.60002 8.89263 4.60002 8.7998V4.5998C4.60002 4.50698 4.6369 4.41795 4.70254 4.35232C4.76817 4.28668 4.8572 4.2498 4.95002 4.2498ZM7.40002 4.5998C7.40002 4.50698 7.36315 4.41795 7.29751 4.35232C7.23187 4.28668 7.14285 4.2498 7.05002 4.2498C6.9572 4.2498 6.86817 4.28668 6.80254 4.35232C6.7369 4.41795 6.70002 4.50698 6.70002 4.5998V8.7998C6.70002 8.89263 6.7369 8.98165 6.80254 9.04729C6.86817 9.11293 6.9572 9.1498 7.05002 9.1498C7.14285 9.1498 7.23187 9.11293 7.29751 9.04729C7.36315 8.98165 7.40002 8.89263 7.40002 8.7998V4.5998Z" fill="#DC2626"/>
</svg>
