<svg width="14" height="14" viewBox="0 0 14 14" fill="none" xmlns="http://www.w3.org/2000/svg">
<path d="M4.70999 7.28999C4.61747 7.3827 4.50758 7.45625 4.38661 7.50643C4.26564 7.55661 4.13595 7.58244 4.00499 7.58244C3.87402 7.58244 3.74433 7.55661 3.62336 7.50643C3.50239 7.45625 3.3925 7.3827 3.29999 7.28999L0.709985 4.69999C0.617282 4.60748 0.543734 4.49759 0.493553 4.37662C0.443371 4.25565 0.417542 4.12596 0.417542 3.99499C0.417542 3.86403 0.443371 3.73434 0.493553 3.61337C0.543734 3.4924 0.617282 3.38251 0.709985 3.28999L3.29999 0.699995C3.39257 0.607413 3.50248 0.533973 3.62344 0.483868C3.74441 0.433763 3.87405 0.407974 4.00499 0.407974C4.13592 0.407974 4.26556 0.433763 4.38653 0.483868C4.50749 0.533973 4.6174 0.607413 4.70999 0.699995C4.80257 0.792576 4.87601 0.902487 4.92611 1.02345C4.97622 1.14442 5.00201 1.27406 5.00201 1.40499C5.00201 1.53593 4.97622 1.66557 4.92611 1.78654C4.87601 1.9075 4.80257 2.01741 4.70999 2.10999L3.82999 2.99999H12C13.1 2.99999 14 3.89999 14 4.99999V13C14 13.55 13.55 14 13 14C12.45 14 12 13.55 12 13V4.99999H3.82999L4.70999 5.87999C5.09999 6.26999 5.09999 6.89999 4.70999 7.28999Z" fill="black"/>
</svg>
