<svg width="14" height="14" viewBox="0 0 14 14" fill="none" xmlns="http://www.w3.org/2000/svg">
<path d="M9.29001 7.29001C9.38253 7.38271 9.49242 7.45626 9.61339 7.50644C9.73436 7.55662 9.86405 7.58245 9.99501 7.58245C10.126 7.58245 10.2557 7.55662 10.3766 7.50644C10.4976 7.45626 10.6075 7.38271 10.7 7.29001L13.29 4.70001C13.3827 4.6075 13.4563 4.49761 13.5064 4.37663C13.5566 4.25566 13.5825 4.12598 13.5825 3.99501C13.5825 3.86404 13.5566 3.73436 13.5064 3.61339C13.4563 3.49241 13.3827 3.38252 13.29 3.29001L10.7 0.70001C10.6074 0.607428 10.4975 0.533988 10.3766 0.483883C10.2556 0.433778 10.1259 0.40799 9.99501 0.40799C9.86408 0.40799 9.73444 0.433778 9.61347 0.483883C9.49251 0.533988 9.3826 0.607428 9.29001 0.70001C9.19743 0.792592 9.12399 0.902502 9.07389 1.02347C9.02378 1.14443 8.99799 1.27408 8.99799 1.40501C8.99799 1.53594 9.02378 1.66559 9.07389 1.78655C9.12399 1.90752 9.19743 2.01743 9.29001 2.11001L10.17 3.00001H2.00001C0.900014 3.00001 1.43051e-05 3.90001 1.43051e-05 5.00001V13C1.43051e-05 13.55 0.450014 14 1.00001 14C1.55001 14 2.00001 13.55 2.00001 13V5.00001H10.17L9.29001 5.88001C8.90001 6.27001 8.90001 6.90001 9.29001 7.29001Z" fill="black"/>
</svg>
