<svg width="8" height="18" viewBox="0 0 8 18" fill="none" xmlns="http://www.w3.org/2000/svg">
<path d="M4.99999 3.82999L5.87999 4.70999C5.97257 4.80257 6.08248 4.87601 6.20345 4.92611C6.32441 4.97622 6.45406 5.00201 6.58499 5.00201C6.71592 5.00201 6.84557 4.97622 6.96653 4.92611C7.0875 4.87601 7.19741 4.80257 7.28999 4.70999C7.38257 4.6174 7.45601 4.50749 7.50612 4.38653C7.55622 4.26556 7.58201 4.13592 7.58201 4.00499C7.58201 3.87405 7.55622 3.74441 7.50612 3.62344C7.45601 3.50248 7.38257 3.39257 7.28999 3.29999L4.69999 0.709985C4.60748 0.617282 4.49759 0.543734 4.37661 0.493553C4.25564 0.443371 4.12596 0.417542 3.99499 0.417542C3.86402 0.417542 3.73434 0.443371 3.61337 0.493553C3.49239 0.543734 3.3825 0.617282 3.28999 0.709985L0.70999 3.28999C0.617408 3.38257 0.543967 3.49248 0.493862 3.61344C0.443757 3.73441 0.417969 3.86405 0.417969 3.99499C0.417969 4.12592 0.443757 4.25556 0.493862 4.37653C0.543967 4.49749 0.617408 4.6074 0.70999 4.69999C0.802571 4.79257 0.912482 4.86601 1.03345 4.91611C1.15441 4.96622 1.28406 4.99201 1.41499 4.99201C1.54592 4.99201 1.67557 4.96622 1.79653 4.91611C1.9175 4.86601 2.02741 4.79257 2.11999 4.69999L2.99999 3.82999V17C2.99999 17.55 3.44999 18 3.99999 18C4.54999 18 4.99999 17.55 4.99999 17V3.82999Z" fill="black"/>
</svg>
