<svg width="18" height="24" viewBox="0 0 18 24" fill="none" xmlns="http://www.w3.org/2000/svg">
<path d="M1.125 24H16.875C17.4953 24 18 23.4953 18 22.875V7.125C18 7.11225 17.994 7.10175 17.9932 7.08975C17.9917 7.0725 17.9873 7.0575 17.9835 7.041C17.9717 6.9889 17.9487 6.94 17.916 6.89775C17.9107 6.891 17.9115 6.88275 17.9062 6.876L11.9062 0.126C11.904 0.12375 11.901 0.12375 11.8988 0.1215C11.853 0.0736578 11.7952 0.0389543 11.7315 0.021C11.7172 0.0165 11.7045 0.015 11.6895 0.01275C11.6678 0.009 11.6475 0 11.625 0H1.125C0.50475 0 0 0.50475 0 1.125V22.875C0 23.4953 0.50475 24 1.125 24ZM12 1.36125L16.7902 6.75H12.375C12.21 6.75 12 6.435 12 6.1875V1.36125ZM0.75 1.125C0.75 1.02554 0.789509 0.930161 0.859835 0.859835C0.930161 0.789509 1.02554 0.75 1.125 0.75H11.25V6.1875C11.25 6.79425 11.7413 7.5 12.375 7.5H17.25V22.875C17.25 22.9745 17.2105 23.0698 17.1402 23.1402C17.0698 23.2105 16.9745 23.25 16.875 23.25H1.125C0.915 23.25 0.75 23.085 0.75 22.875V1.125Z" fill="black"/>
<path d="M4.125 10.5H13.875C13.9745 10.5 14.0698 10.4605 14.1402 10.3902C14.2105 10.3198 14.25 10.2245 14.25 10.125C14.25 10.0255 14.2105 9.93016 14.1402 9.85983C14.0698 9.78951 13.9745 9.75 13.875 9.75H4.125C4.02554 9.75 3.93016 9.78951 3.85984 9.85983C3.78951 9.93016 3.75 10.0255 3.75 10.125C3.75 10.2245 3.78951 10.3198 3.85984 10.3902C3.93016 10.4605 4.02554 10.5 4.125 10.5ZM4.125 13.5H13.875C13.9745 13.5 14.0698 13.4605 14.1402 13.3902C14.2105 13.3198 14.25 13.2245 14.25 13.125C14.25 13.0255 14.2105 12.9302 14.1402 12.8598C14.0698 12.7895 13.9745 12.75 13.875 12.75H4.125C4.02554 12.75 3.93016 12.7895 3.85984 12.8598C3.78951 12.9302 3.75 13.0255 3.75 13.125C3.75 13.2245 3.78951 13.3198 3.85984 13.3902C3.93016 13.4605 4.02554 13.5 4.125 13.5ZM4.125 7.5H8.625C8.72446 7.5 8.81984 7.46049 8.89017 7.39017C8.96049 7.31984 9 7.22446 9 7.125C9 7.02554 8.96049 6.93016 8.89017 6.85983C8.81984 6.78951 8.72446 6.75 8.625 6.75H4.125C4.02554 6.75 3.93016 6.78951 3.85984 6.85983C3.78951 6.93016 3.75 7.02554 3.75 7.125C3.75 7.22446 3.78951 7.31984 3.85984 7.39017C3.93016 7.46049 4.02554 7.5 4.125 7.5ZM4.125 16.5H13.875C13.9745 16.5 14.0698 16.4605 14.1402 16.3902C14.2105 16.3198 14.25 16.2245 14.25 16.125C14.25 16.0255 14.2105 15.9302 14.1402 15.8598C14.0698 15.7895 13.9745 15.75 13.875 15.75H4.125C4.02554 15.75 3.93016 15.7895 3.85984 15.8598C3.78951 15.9302 3.75 16.0255 3.75 16.125C3.75 16.2245 3.78951 16.3198 3.85984 16.3902C3.93016 16.4605 4.02554 16.5 4.125 16.5ZM4.125 19.5H13.875C13.9745 19.5 14.0698 19.4605 14.1402 19.3902C14.2105 19.3198 14.25 19.2245 14.25 19.125C14.25 19.0255 14.2105 18.9302 14.1402 18.8598C14.0698 18.7895 13.9745 18.75 13.875 18.75H4.125C4.02554 18.75 3.93016 18.7895 3.85984 18.8598C3.78951 18.9302 3.75 19.0255 3.75 19.125C3.75 19.2245 3.78951 19.3198 3.85984 19.3902C3.93016 19.4605 4.02554 19.5 4.125 19.5Z" fill="black"/>
</svg>
