<svg width="19" height="18" viewBox="0 0 19 18" fill="none" xmlns="http://www.w3.org/2000/svg">
<path d="M5.75 12.7598L9.05975 12.7485L16.2838 5.59355C16.5673 5.31005 16.7233 4.93355 16.7233 4.53305C16.7233 4.13255 16.5673 3.75605 16.2838 3.47255L15.0942 2.28305C14.5272 1.71605 13.538 1.71905 12.9755 2.2808L5.75 9.4373V12.7598ZM14.0338 3.34355L15.2255 4.5308L14.0278 5.7173L12.8383 4.52855L14.0338 3.34355ZM7.25 10.0628L11.7725 5.58305L12.962 6.77255L8.44025 11.2508L7.25 11.2545V10.0628Z" fill="#3A86FF"/>
<path d="M4.25 15.75H14.75C15.5773 15.75 16.25 15.0773 16.25 14.25V7.749L14.75 9.249V14.25H6.6185C6.599 14.25 6.57875 14.2575 6.55925 14.2575C6.5345 14.2575 6.50975 14.2507 6.48425 14.25H4.25V3.75H9.38525L10.8853 2.25H4.25C3.42275 2.25 2.75 2.92275 2.75 3.75V14.25C2.75 15.0773 3.42275 15.75 4.25 15.75Z" fill="#3A86FF"/>
</svg>
