<svg width="16" height="16" viewBox="0 0 16 16" fill="none" xmlns="http://www.w3.org/2000/svg">
<path d="M13.3787 1.25V4.25M13.3787 14.75V7.25M8.12866 1.25V10.25M8.12866 14.75V13.25M2.87866 1.25V2.75M2.87866 14.75V5.75" stroke="black" stroke-width="1.5" stroke-linecap="round"/>
<path d="M11.8787 5.75C11.8787 6.57843 12.5502 7.25 13.3787 7.25C14.2071 7.25 14.8787 6.57843 14.8787 5.75C14.8787 4.92157 14.2071 4.25 13.3787 4.25C12.5502 4.25 11.8787 4.92157 11.8787 5.75Z" stroke="black" stroke-width="1.5" stroke-linecap="round"/>
<path d="M6.62866 11.75C6.62866 12.5784 7.30024 13.25 8.12866 13.25C8.95709 13.25 9.62866 12.5784 9.62866 11.75C9.62866 10.9216 8.95709 10.25 8.12866 10.25C7.30024 10.25 6.62866 10.9216 6.62866 11.75Z" stroke="black" stroke-width="1.5" stroke-linecap="round"/>
<path d="M1.37866 4.25C1.37866 5.07843 2.05024 5.75 2.87866 5.75C3.70709 5.75 4.37866 5.07843 4.37866 4.25C4.37866 3.42157 3.70709 2.75 2.87866 2.75C2.05024 2.75 1.37866 3.42157 1.37866 4.25Z" stroke="black" stroke-width="1.5" stroke-linecap="round"/>
</svg>
