<svg width="12" height="12" viewBox="0 0 12 12" fill="none" xmlns="http://www.w3.org/2000/svg">
<g clip-path="url(#clip0_24_4286)">
<path d="M11.2367 5.76331L6.23667 0.763313C6.17422 0.701229 6.08974 0.666382 6.00168 0.666382C5.91361 0.666382 5.82913 0.701229 5.76668 0.763313L0.766676 5.76331C0.712067 5.82708 0.683532 5.90911 0.686772 5.993C0.690012 6.07689 0.72479 6.15647 0.784155 6.21583C0.84352 6.2752 0.923099 6.30998 1.00699 6.31322C1.09088 6.31646 1.17291 6.28792 1.23668 6.23331L6.00001 1.46998L10.7633 6.23665C10.8271 6.29125 10.9091 6.31979 10.993 6.31655C11.0769 6.31331 11.1565 6.27853 11.2159 6.21917C11.2752 6.1598 11.31 6.08022 11.3132 5.99633C11.3165 5.91244 11.288 5.83041 11.2333 5.76665L11.2367 5.76331Z" fill="#9CA3AF"/>
<path d="M9.33333 10.6666H7.66667V7.33332H4.33333V10.6666H2.66667V5.99998L2 6.66665V10.6666C2 10.8435 2.07024 11.013 2.19526 11.1381C2.32029 11.2631 2.48986 11.3333 2.66667 11.3333H5V7.99998H7V11.3333H9.33333C9.51014 11.3333 9.67971 11.2631 9.80474 11.1381C9.92976 11.013 10 10.8435 10 10.6666V6.58665L9.33333 5.91998V10.6666Z" fill="#9CA3AF"/>
</g>
<defs>
<clipPath id="clip0_24_4286">
<rect width="12" height="12" fill="white"/>
</clipPath>
</defs>
</svg>
