<svg width="23" height="22" viewBox="0 0 23 22" fill="none" xmlns="http://www.w3.org/2000/svg">
<path fill-rule="evenodd" clip-rule="evenodd" d="M16.0833 6.41669C16.0833 5.68734 15.7936 4.98787 15.2779 4.47214C14.7622 3.95642 14.0627 3.66669 13.3333 3.66669H9.66667C8.93732 3.66669 8.23785 3.95642 7.72212 4.47214C7.2064 4.98787 6.91667 5.68734 6.91667 6.41669H6C5.27065 6.41669 4.57118 6.70642 4.05546 7.22214C3.53973 7.73787 3.25 8.43734 3.25 9.16669V16.5C3.25 17.2294 3.53973 17.9288 4.05546 18.4446C4.57118 18.9603 5.27065 19.25 6 19.25H17C17.7293 19.25 18.4288 18.9603 18.9445 18.4446C19.4603 17.9288 19.75 17.2294 19.75 16.5V9.16669C19.75 8.43734 19.4603 7.73787 18.9445 7.22214C18.4288 6.70642 17.7293 6.41669 17 6.41669H16.0833ZM13.3333 5.50002H9.66667C9.42355 5.50002 9.19039 5.5966 9.01849 5.76851C8.84658 5.94041 8.75 6.17357 8.75 6.41669H14.25C14.25 6.17357 14.1534 5.94041 13.9815 5.76851C13.8096 5.5966 13.5764 5.50002 13.3333 5.50002ZM6 8.25002H17C17.2431 8.25002 17.4763 8.3466 17.6482 8.51851C17.8201 8.69041 17.9167 8.92357 17.9167 9.16669V16.5C17.9167 16.7431 17.8201 16.9763 17.6482 17.1482C17.4763 17.3201 17.2431 17.4167 17 17.4167H6C5.75688 17.4167 5.52373 17.3201 5.35182 17.1482C5.17991 16.9763 5.08333 16.7431 5.08333 16.5V9.16669C5.08333 8.92357 5.17991 8.69041 5.35182 8.51851C5.52373 8.3466 5.75688 8.25002 6 8.25002Z" fill="#9CA3AF"/>
</svg>
