<svg width="19" height="24" viewBox="0 0 19 24" fill="none" xmlns="http://www.w3.org/2000/svg">
<path d="M9.49998 24C7.78583 22.5638 6.19696 20.9893 4.74999 19.2929C2.57857 16.7454 1.19278e-06 12.9515 1.19278e-06 9.33619C-0.000940524 7.48983 0.555761 5.6847 1.59965 4.14924C2.64354 2.61378 4.1277 1.41701 5.86429 0.710405C7.60088 0.00379488 9.51185 -0.180898 11.3553 0.179701C13.1988 0.540299 14.892 1.42998 16.2205 2.73615C17.1051 3.60112 17.8061 4.62983 18.2832 5.76272C18.7603 6.89562 19.0039 8.1102 19 9.33619C19 12.9515 16.4214 16.7454 14.25 19.2929C12.803 20.9893 11.2141 22.5638 9.49998 24ZM9.49998 5.33697C8.42017 5.33697 7.38459 5.75832 6.62105 6.50832C5.85751 7.25832 5.42856 8.27553 5.42856 9.33619C5.42856 10.3969 5.85751 11.4141 6.62105 12.1641C7.38459 12.9141 8.42017 13.3354 9.49998 13.3354C10.5798 13.3354 11.6154 12.9141 12.3789 12.1641C13.1424 11.4141 13.5714 10.3969 13.5714 9.33619C13.5714 8.27553 13.1424 7.25832 12.3789 6.50832C11.6154 5.75832 10.5798 5.33697 9.49998 5.33697Z" fill="black"/>
</svg>
