<svg width="10" height="12" viewBox="0 0 10 12" fill="none" xmlns="http://www.w3.org/2000/svg">
<path d="M5 6.5C5.82843 6.5 6.5 5.82843 6.5 5C6.5 4.17157 5.82843 3.5 5 3.5C4.17157 3.5 3.5 4.17157 3.5 5C3.5 5.82843 4.17157 6.5 5 6.5Z" stroke="#9CA3AF" stroke-linecap="round" stroke-linejoin="round"/>
<path d="M5 1C3.93913 1 2.92172 1.42143 2.17157 2.17157C1.42143 2.92172 1 3.93913 1 5C1 5.946 1.201 6.565 1.75 7.25L5 11L8.25 7.25C8.799 6.565 9 5.946 9 5C9 3.93913 8.57857 2.92172 7.82843 2.17157C7.07828 1.42143 6.06087 1 5 1V1Z" stroke="#9CA3AF" stroke-linecap="round" stroke-linejoin="round"/>
</svg>
