<svg width="12" height="12" viewBox="0 0 12 12" fill="none" xmlns="http://www.w3.org/2000/svg">
<path d="M10.7235 3.05249L7.7235 1.55249C7.65403 1.51773 7.57743 1.49963 7.49975 1.49963C7.42207 1.49963 7.34547 1.51773 7.276 1.55249L4.5 2.94099L1.7235 1.55249C1.64725 1.51439 1.56253 1.49641 1.47738 1.50027C1.39223 1.50413 1.30948 1.52969 1.23698 1.57453C1.16449 1.61936 1.10467 1.68199 1.06319 1.75646C1.02171 1.83092 0.99996 1.91475 1 1.99999V8.49999C1 8.68949 1.107 8.86249 1.2765 8.94749L4.2765 10.4475C4.34597 10.4823 4.42257 10.5003 4.50025 10.5003C4.57793 10.5003 4.65454 10.4823 4.724 10.4475L7.5 9.05899L10.2765 10.447C10.3525 10.4855 10.4372 10.5037 10.5223 10.4999C10.6074 10.4962 10.6902 10.4705 10.7625 10.4255C10.91 10.334 11 10.1735 11 9.99999V3.49999C11 3.31049 10.893 3.13749 10.7235 3.05249ZM5 3.80899L7 2.80899V8.19099L5 9.19099V3.80899ZM2 2.80899L4 3.80899V9.19099L2 8.19099V2.80899ZM10 9.19099L8 8.19099V2.80899L10 3.80899V9.19099Z" fill="#0467A2"/>
</svg>
