<svg width="22" height="22" viewBox="0 0 22 22" fill="none" xmlns="http://www.w3.org/2000/svg">
<path d="M1.83337 7.33335C1.83337 7.09024 1.92995 6.85708 2.10186 6.68517C2.27377 6.51326 2.50693 6.41669 2.75004 6.41669H19.25C19.4932 6.41669 19.7263 6.51326 19.8982 6.68517C20.0701 6.85708 20.1667 7.09024 20.1667 7.33335C20.1667 7.57647 20.0701 7.80963 19.8982 7.98153C19.7263 8.15344 19.4932 8.25002 19.25 8.25002H2.75004C2.50693 8.25002 2.27377 8.15344 2.10186 7.98153C1.92995 7.80963 1.83337 7.57647 1.83337 7.33335ZM1.83337 11C1.83337 10.7569 1.92995 10.5237 2.10186 10.3518C2.27377 10.1799 2.50693 10.0834 2.75004 10.0834H19.25C19.4932 10.0834 19.7263 10.1799 19.8982 10.3518C20.0701 10.5237 20.1667 10.7569 20.1667 11C20.1667 11.2431 20.0701 11.4763 19.8982 11.6482C19.7263 11.8201 19.4932 11.9167 19.25 11.9167H2.75004C2.50693 11.9167 2.27377 11.8201 2.10186 11.6482C1.92995 11.4763 1.83337 11.2431 1.83337 11ZM2.75004 13.75C2.50693 13.75 2.27377 13.8466 2.10186 14.0185C1.92995 14.1904 1.83337 14.4236 1.83337 14.6667C1.83337 14.9098 1.92995 15.143 2.10186 15.3149C2.27377 15.4868 2.50693 15.5834 2.75004 15.5834H13.75C13.9932 15.5834 14.2263 15.4868 14.3982 15.3149C14.5701 15.143 14.6667 14.9098 14.6667 14.6667C14.6667 14.4236 14.5701 14.1904 14.3982 14.0185C14.2263 13.8466 13.9932 13.75 13.75 13.75H2.75004Z" fill="#9CA3AF"/>
</svg>
