<svg width="22" height="22" viewBox="0 0 22 22" fill="none" xmlns="http://www.w3.org/2000/svg">
<path d="M11.0001 1C5.47712 1 1.00012 5.477 1.00012 11C1.00012 16.523 5.47712 21 11.0001 21C16.5231 21 21.0001 16.523 21.0001 11C21.0001 5.477 16.5231 1 11.0001 1Z" stroke="black" stroke-linecap="round" stroke-linejoin="round"/>
<path d="M3.27112 17.346C3.27112 17.346 5.50012 14.5 11.0001 14.5C16.5001 14.5 18.7301 17.346 18.7301 17.346M11.0001 11C11.7958 11 12.5588 10.6839 13.1214 10.1213C13.684 9.55871 14.0001 8.79565 14.0001 8C14.0001 7.20435 13.684 6.44129 13.1214 5.87868C12.5588 5.31607 11.7958 5 11.0001 5C10.2045 5 9.44141 5.31607 8.8788 5.87868C8.31619 6.44129 8.00012 7.20435 8.00012 8C8.00012 8.79565 8.31619 9.55871 8.8788 10.1213C9.44141 10.6839 10.2045 11 11.0001 11V11Z" stroke="black" stroke-linecap="round" stroke-linejoin="round"/>
</svg>
