<svg width="19" height="19" viewBox="0 0 19 19" fill="none" xmlns="http://www.w3.org/2000/svg">
<path d="M3.36316 11.92C4.20179 11.9154 5.0084 11.6115 5.62482 11.0678L11.624 14.348C11.5476 14.6012 11.5089 14.8634 11.509 15.1269C11.5028 15.8705 11.7648 16.5934 12.2509 17.1739C12.737 17.7544 13.4174 18.157 14.1776 18.314C14.9379 18.471 15.7314 18.3727 16.4248 18.0357C17.1181 17.6988 17.6688 17.1437 17.9841 16.464C18.2995 15.7842 18.3603 15.0213 18.1562 14.3038C17.9521 13.5862 17.4957 12.9578 16.8637 12.5244C16.2317 12.0909 15.4629 11.8789 14.6866 11.924C13.9102 11.9691 13.1739 12.2686 12.6015 12.7721L6.60232 9.49187C6.67472 9.26607 6.71344 9.03164 6.71732 8.79551L12.6111 5.57027C13.1804 6.06216 13.9093 6.35192 14.6755 6.39097C15.4418 6.43001 16.1987 6.21597 16.8195 5.78472C17.4403 5.35348 17.8871 4.73128 18.085 4.02245C18.2829 3.31363 18.2198 2.56131 17.9064 1.89165C17.593 1.222 17.0483 0.675742 16.3636 0.344501C15.679 0.0132591 14.896 -0.0828229 14.146 0.072369C13.3961 0.227561 12.7247 0.624588 12.2446 1.19686C11.7644 1.76914 11.5047 2.48186 11.509 3.21548C11.5122 3.47873 11.5509 3.74049 11.624 3.99431L6.17107 6.97215C5.85512 6.50482 5.41741 6.12413 4.90098 5.86751C4.38454 5.61089 3.80715 5.48717 3.22556 5.5085C2.64397 5.52984 2.0782 5.6955 1.58385 5.9892C1.0895 6.2829 0.683591 6.69454 0.406019 7.18364C0.128447 7.67275 -0.0112335 8.22249 0.000705974 8.77884C0.0126454 9.33519 0.175794 9.879 0.474116 10.3568C0.772438 10.8346 1.19567 11.23 1.7022 11.504C2.20873 11.7781 2.78114 11.9214 3.36316 11.92ZM14.8632 13.7525C15.1475 13.7525 15.4254 13.8331 15.6618 13.9841C15.8982 14.1351 16.0824 14.3498 16.1912 14.6009C16.3 14.852 16.3285 15.1284 16.273 15.395C16.2176 15.6616 16.0807 15.9065 15.8796 16.0987C15.6786 16.2909 15.4224 16.4218 15.1436 16.4748C14.8647 16.5279 14.5757 16.5007 14.313 16.3966C14.0504 16.2926 13.8259 16.1165 13.6679 15.8904C13.51 15.6644 13.4257 15.3987 13.4257 15.1269C13.4257 14.7624 13.5771 14.4128 13.8467 14.155C14.1163 13.8973 14.4819 13.7525 14.8632 13.7525ZM14.8632 1.84109C15.1475 1.84109 15.4254 1.9217 15.6618 2.07272C15.8982 2.22374 16.0824 2.43839 16.1912 2.68953C16.3 2.94067 16.3285 3.21701 16.273 3.48361C16.2176 3.75022 16.0807 3.99511 15.8796 4.18733C15.6786 4.37954 15.4224 4.51044 15.1436 4.56347C14.8647 4.6165 14.5757 4.58928 14.313 4.48526C14.0504 4.38123 13.8259 4.20507 13.6679 3.97906C13.51 3.75304 13.4257 3.48731 13.4257 3.21548C13.4257 2.85097 13.5771 2.50139 13.8467 2.24364C14.1163 1.9859 14.4819 1.84109 14.8632 1.84109ZM3.36316 7.33865C3.64747 7.33865 3.92539 7.41926 4.16179 7.57028C4.39818 7.7213 4.58243 7.93595 4.69123 8.18709C4.80003 8.43823 4.8285 8.71457 4.77303 8.98118C4.71757 9.24778 4.58066 9.49267 4.37962 9.68489C4.17858 9.8771 3.92245 10.008 3.6436 10.061C3.36475 10.1141 3.07572 10.0868 2.81305 9.98282C2.55038 9.87879 2.32587 9.70263 2.16792 9.47661C2.00996 9.2506 1.92566 8.98487 1.92566 8.71305C1.92566 8.34853 2.07711 7.99895 2.34669 7.7412C2.61627 7.48346 2.98191 7.33865 3.36316 7.33865Z" fill="black"/>
</svg>
