<svg width="24" height="24" viewBox="0 0 24 24" fill="none" xmlns="http://www.w3.org/2000/svg">
<path fill-rule="evenodd" clip-rule="evenodd" d="M12.0001 2.3999C10.727 2.3999 9.50612 2.90562 8.60595 3.80579C7.70577 4.70596 7.20006 5.92686 7.20006 7.1999V8.3999H6.00006C5.70464 8.39988 5.4196 8.50883 5.19951 8.7059C4.97942 8.90296 4.83975 9.17428 4.80726 9.4679L3.60726 20.2679C3.5887 20.4356 3.60571 20.6053 3.65719 20.766C3.70867 20.9267 3.79346 21.0747 3.90602 21.2004C4.01858 21.3261 4.15639 21.4267 4.31044 21.4955C4.46449 21.5643 4.63133 21.5999 4.80006 21.5999H19.2001C19.3688 21.5999 19.5356 21.5643 19.6897 21.4955C19.8437 21.4267 19.9815 21.3261 20.0941 21.2004C20.2067 21.0747 20.2914 20.9267 20.3429 20.766C20.3944 20.6053 20.4114 20.4356 20.3929 20.2679L19.1929 9.4679C19.1604 9.17428 19.0207 8.90296 18.8006 8.7059C18.5805 8.50883 18.2955 8.39988 18.0001 8.3999H16.8001V7.1999C16.8001 5.92686 16.2943 4.70596 15.3942 3.80579C14.494 2.90562 13.2731 2.3999 12.0001 2.3999ZM14.4001 8.3999V7.1999C14.4001 6.56338 14.1472 5.95293 13.6971 5.50285C13.247 5.05276 12.6366 4.7999 12.0001 4.7999C11.3635 4.7999 10.7531 5.05276 10.303 5.50285C9.85292 5.95293 9.60006 6.56338 9.60006 7.1999V8.3999H14.4001ZM7.20006 11.9999C7.20006 11.6816 7.32649 11.3764 7.55153 11.1514C7.77657 10.9263 8.0818 10.7999 8.40006 10.7999C8.71832 10.7999 9.02354 10.9263 9.24859 11.1514C9.47363 11.3764 9.60006 11.6816 9.60006 11.9999C9.60006 12.3182 9.47363 12.6234 9.24859 12.8484C9.02354 13.0735 8.71832 13.1999 8.40006 13.1999C8.0818 13.1999 7.77657 13.0735 7.55153 12.8484C7.32649 12.6234 7.20006 12.3182 7.20006 11.9999ZM15.6001 10.7999C15.2818 10.7999 14.9766 10.9263 14.7515 11.1514C14.5265 11.3764 14.4001 11.6816 14.4001 11.9999C14.4001 12.3182 14.5265 12.6234 14.7515 12.8484C14.9766 13.0735 15.2818 13.1999 15.6001 13.1999C15.9183 13.1999 16.2235 13.0735 16.4486 12.8484C16.6736 12.6234 16.8001 12.3182 16.8001 11.9999C16.8001 11.6816 16.6736 11.3764 16.4486 11.1514C16.2235 10.9263 15.9183 10.7999 15.6001 10.7999Z" fill="black"/>
</svg>
