<svg width="13" height="9" viewBox="0 0 13 9" fill="none" xmlns="http://www.w3.org/2000/svg">
<g clip-path="url(#clip0_550_1154)">
<path d="M0.873449 1.47236H12.3419C12.543 1.47236 12.7075 1.27649 12.7075 1.02789C12.7075 0.786814 12.543 0.590942 12.3419 0.590942H0.873449C0.672354 0.590942 0.513916 0.786814 0.513916 1.02789C0.513916 1.27649 0.672354 1.47236 0.873449 1.47236ZM0.873449 4.88503H12.3419C12.543 4.88503 12.7075 4.68916 12.7075 4.44055C12.7075 4.19194 12.543 3.99608 12.3419 3.99608H0.873449C0.672354 3.99608 0.513916 4.19194 0.513916 4.44055C0.513916 4.68916 0.672354 4.88503 0.873449 4.88503ZM0.873449 8.29013H12.3419C12.543 8.29013 12.7075 8.09432 12.7075 7.84566C12.7075 7.59707 12.543 7.40119 12.3419 7.40119H0.873449C0.672354 7.40119 0.513916 7.59707 0.513916 7.84566C0.513916 8.09432 0.672354 8.29013 0.873449 8.29013Z" fill="#374151"/>
</g>
<defs>
<clipPath id="clip0_550_1154">
<rect width="13" height="9" fill="white"/>
</clipPath>
</defs>
</svg>
