<svg width="13" height="8" viewBox="0 0 13 8" fill="none" xmlns="http://www.w3.org/2000/svg">
<path d="M9.45455 0.5H3.54545C1.58955 0.5 0 2.06917 0 4C0 5.93083 1.58955 7.5 3.54545 7.5H9.45455C11.4105 7.5 13 5.93083 13 4C13 2.06917 11.4105 0.5 9.45455 0.5ZM9.45455 6.33333H3.54545C2.23955 6.33333 1.18182 5.28917 1.18182 4C1.18182 2.71083 2.23955 1.66667 3.54545 1.66667H9.45455C10.7605 1.66667 11.8182 2.71083 11.8182 4C11.8182 5.28917 10.7605 6.33333 9.45455 6.33333ZM3.54545 2.25C2.56455 2.25 1.77273 3.03167 1.77273 4C1.77273 4.96833 2.56455 5.75 3.54545 5.75C4.52636 5.75 5.31818 4.96833 5.31818 4C5.31818 3.03167 4.52636 2.25 3.54545 2.25Z" fill="#4DB7FE"/>
</svg>
