<svg width="14" height="14" viewBox="0 0 14 14" fill="none" xmlns="http://www.w3.org/2000/svg">
<g clip-path="url(#clip0_452_1103)">
<path d="M9.625 11.375C10.1082 11.375 10.5 10.9832 10.5 10.5C10.5 10.0168 10.1082 9.625 9.625 9.625C9.14175 9.625 8.75 10.0168 8.75 10.5C8.75 10.9832 9.14175 11.375 9.625 11.375Z" fill="#383838"/>
<path d="M13.0274 10.2721C12.7571 9.58339 12.2906 8.98918 11.6858 8.56308C11.081 8.13699 10.3645 7.89774 9.625 7.875C8.88552 7.89774 8.16897 8.13699 7.56416 8.56308C6.95936 8.98918 6.49288 9.58339 6.22256 10.2721L6.125 10.5L6.22256 10.7279C6.49288 11.4166 6.95936 12.0108 7.56416 12.4369C8.16897 12.863 8.88552 13.1023 9.625 13.125C10.3645 13.1023 11.081 12.863 11.6858 12.4369C12.2906 12.0108 12.7571 11.4166 13.0274 10.7279L13.125 10.5L13.0274 10.2721ZM9.625 12.25C9.27888 12.25 8.94054 12.1474 8.65275 11.9551C8.36497 11.7628 8.14066 11.4895 8.00821 11.1697C7.87576 10.8499 7.8411 10.4981 7.90863 10.1586C7.97615 9.81913 8.14282 9.50731 8.38756 9.26256C8.63231 9.01782 8.94413 8.85115 9.28359 8.78363C9.62306 8.7161 9.97493 8.75076 10.2947 8.88321C10.6145 9.01566 10.8878 9.23997 11.0801 9.52775C11.2724 9.81554 11.375 10.1539 11.375 10.5C11.3744 10.964 11.1899 11.4087 10.8618 11.7368C10.5337 12.0649 10.089 12.2494 9.625 12.25ZM3.0625 7.4375H5.25V8.3125H3.0625V7.4375ZM3.0625 5.25H8.3125V6.125H3.0625V5.25ZM3.0625 3.0625H8.3125V3.9375H3.0625V3.0625Z" fill="#383838"/>
<path d="M9.625 0.875H1.75C1.51815 0.875692 1.29599 0.968102 1.13205 1.13205C0.968102 1.29599 0.875692 1.51815 0.875 1.75V12.25C0.875692 12.4819 0.968102 12.704 1.13205 12.868C1.29599 13.0319 1.51815 13.1243 1.75 13.125H5.25V12.25H1.75V1.75H9.625V6.5625H10.5V1.75C10.4993 1.51815 10.4069 1.29599 10.243 1.13205C10.079 0.968102 9.85685 0.875692 9.625 0.875Z" fill="#383838"/>
</g>
<defs>
<clipPath id="clip0_452_1103">
<rect width="14" height="14" fill="white"/>
</clipPath>
</defs>
</svg>
