<svg width="15" height="15" viewBox="0 0 15 15" fill="none" xmlns="http://www.w3.org/2000/svg">
<path d="M12.8438 2.29688C12.8438 2.15625 12.7969 2.0625 12.7031 1.96875C12.6094 1.875 12.5156 1.82812 12.375 1.82812C12.2344 1.82812 12.1406 1.875 12.0469 1.96875L10.7812 3.23438C9.84375 2.76563 8.76562 2.48438 7.5 2.34375C5.15625 2.57812 3.28125 3.42188 1.96875 4.92188C0.65625 6.42188 0 7.26563 0 7.5C0 7.73438 0.703125 8.57813 1.96875 10.0781C2.29688 10.4531 2.625 10.7813 3.04688 11.0625L1.78125 12.375C1.6875 12.4688 1.64062 12.5625 1.64062 12.7031C1.64062 12.8438 1.6875 12.9375 1.78125 13.0313C1.875 13.125 1.96875 13.1719 2.10938 13.1719C2.25 13.1719 2.34375 13.125 2.4375 13.0313L12.75 2.625C12.7969 2.53125 12.8438 2.4375 12.8438 2.29688ZM3.375 10.0313C2.25 9 1.5 8.15625 1.125 7.5C1.54688 6.79688 2.29688 5.95313 3.375 4.96875C4.45312 3.98438 5.85938 3.375 7.5 3.28125C8.4375 3.32812 9.32812 3.5625 10.0781 3.9375L9.28125 4.73438C8.76562 4.40625 8.20312 4.21875 7.5 4.21875C6.5625 4.21875 5.8125 4.54688 5.15625 5.15625C4.5 5.76563 4.21875 6.5625 4.21875 7.5C4.21875 8.20313 4.40625 8.8125 4.73438 9.32813L3.75 10.3594C3.60938 10.2656 3.46875 10.125 3.375 10.0313ZM5.4375 8.625C5.25 8.29688 5.15625 7.92188 5.15625 7.5C5.15625 6.84375 5.39062 6.28125 5.85938 5.85938C6.32812 5.4375 6.84375 5.15625 7.5 5.15625C7.92188 5.15625 8.29688 5.25 8.57812 5.4375L5.4375 8.625ZM13.0312 4.92188C12.8437 4.6875 12.6094 4.5 12.4219 4.3125L11.7187 5.01562C12.7969 6 13.5469 6.84375 13.9219 7.5C13.5 8.20313 12.75 9.04688 11.6719 10.0313C10.5937 11.0156 9.14061 11.625 7.49999 11.7188C6.74999 11.6719 6.04686 11.5313 5.43749 11.2969L4.73436 12C5.57811 12.3281 6.46874 12.5625 7.49999 12.6563C9.84374 12.4219 11.7187 11.5781 13.0312 10.0781C14.3437 8.57813 15 7.73438 15 7.5C15 7.26563 14.2969 6.42188 13.0312 4.92188Z" fill="#6B7280"/>
<path d="M7.5 9.84375C7.3125 9.84375 7.125 9.79687 6.9375 9.75L6.1875 10.5C6.60938 10.6875 7.03125 10.7812 7.5 10.7812C8.4375 10.7812 9.1875 10.4531 9.84375 9.84375C10.4531 9.23438 10.7812 8.4375 10.7812 7.5C10.7812 7.03125 10.6875 6.5625 10.5 6.1875L9.75 6.9375C9.79688 7.125 9.84375 7.3125 9.84375 7.5C9.84375 8.15625 9.60937 8.71875 9.14062 9.14062C8.67187 9.5625 8.15625 9.84375 7.5 9.84375Z" fill="#6B7280"/>
</svg>
